<svg xmlns="http://www.w3.org/2000/svg" viewBox="0 0 13 13" width="13" height="13">
  <rect width="13" height="13" rx="2" fill="#2b2d30"/>
  <rect x="1" y="1" width="11" height="11" rx="1" fill="none" stroke="#ff6b35" stroke-width="1"/>
  <!-- < bracket -->
  <rect x="2" y="4" width="1" height="1" fill="#ff8c42"/>
  <rect x="3" y="5" width="1" height="1" fill="#ff8c42"/>
  <rect x="4" y="6" width="1" height="1" fill="#ff8c42"/>
  <rect x="3" y="7" width="1" height="1" fill="#ff8c42"/>
  <rect x="2" y="8" width="1" height="1" fill="#ff8c42"/>
  <!-- / slash -->
  <rect x="6" y="8" width="1" height="1" fill="#ffd700"/>
  <rect x="6" y="7" width="1" height="1" fill="#ffd700"/>
  <rect x="7" y="6" width="1" height="1" fill="#ffd700"/>
  <rect x="7" y="5" width="1" height="1" fill="#ffd700"/>
  <rect x="7" y="4" width="1" height="1" fill="#ffd700"/>
  <!-- > bracket -->
  <rect x="10" y="4" width="1" height="1" fill="#ff8c42"/>
  <rect x="9" y="5" width="1" height="1" fill="#ff8c42"/>
  <rect x="8" y="6" width="1" height="1" fill="#ff8c42"/>
  <rect x="9" y="7" width="1" height="1" fill="#ff8c42"/>
  <rect x="10" y="8" width="1" height="1" fill="#ff8c42"/>
  <!-- checkmark dot -->
  <rect x="9" y="10" width="2" height="2" rx="1" fill="#4CAF50"/>
</svg>
